<?xml version="1.0" standalone="no"?><!DOCTYPE svg PUBLIC "-//W3C//DTD SVG 1.1//EN" "http://www.w3.org/Graphics/SVG/1.1/DTD/svg11.dtd"><svg t="1714806973468" class="icon" viewBox="0 0 1170 1024" version="1.1" xmlns="http://www.w3.org/2000/svg" p-id="2426" xmlns:xlink="http://www.w3.org/1999/xlink" width="228.515625" height="200"><path d="M1097.142857 431.542857V219.428571c0-80.457143-65.828571-146.285714-146.285714-146.285714H548.571429c-29.257143-43.885714-73.142857-73.142857-124.342858-73.142857H146.285714C65.828571 0 0 65.828571 0 146.285714v731.428572c0 80.457143 65.828571 146.285714 146.285714 146.285714h877.714286c80.457143 0 146.285714-65.828571 146.285714-146.285714V555.885714c0-51.2-29.257143-102.4-73.142857-124.342857z m-146.285714-299.885714c43.885714 0 73.142857 29.257143 73.142857 73.142857v204.8h-248.685714c-29.257143 0-51.2-14.628571-65.828572-36.571429L585.142857 131.657143h365.714286zM1097.142857 877.714286c0 43.885714-29.257143 73.142857-73.142857 73.142857H146.285714c-43.885714 0-73.142857-29.257143-73.142857-73.142857V146.285714c0-43.885714 29.257143-73.142857 73.142857-73.142857h277.942857c29.257143 0 51.2 14.628571 65.828572 36.571429l160.914286 292.571428c21.942857 51.2 73.142857 80.457143 131.657142 80.457143H1024c43.885714 0 73.142857 29.257143 73.142857 73.142857V877.714286z" fill="#777777" p-id="2427"></path></svg>