<?xml version="1.0" standalone="no"?><!DOCTYPE svg PUBLIC "-//W3C//DTD SVG 1.1//EN" "http://www.w3.org/Graphics/SVG/1.1/DTD/svg11.dtd"><svg t="1714806948693" class="icon" viewBox="0 0 1024 1024" version="1.1" xmlns="http://www.w3.org/2000/svg" p-id="1982" xmlns:xlink="http://www.w3.org/1999/xlink" width="200" height="200"><path d="M409.6 0v68.266667h-34.133333c-20.48 0-34.133333 13.653333-34.133334 34.133333s13.653333 34.133333 34.133334 34.133333H409.6v68.266667h-34.133333c-20.48 0-34.133333 13.653333-34.133334 34.133333s13.653333 34.133333 34.133334 34.133334H409.6v68.266666h-34.133333c-20.48 0-34.133333 13.653333-34.133334 34.133334s13.653333 34.133333 34.133334 34.133333H409.6v68.266667h-34.133333c-20.48 0-34.133333 13.653333-34.133334 34.133333s13.653333 34.133333 34.133334 34.133333h68.266666c20.48 0 34.133333-13.653333 34.133334-34.133333V477.866667h34.133333c20.48 0 34.133333-13.653333 34.133333-34.133334S532.48 409.6 512 409.6H477.866667V341.333333h34.133333c20.48 0 34.133333-13.653333 34.133333-34.133333S532.48 273.066667 512 273.066667H477.866667V204.8h34.133333c20.48 0 34.133333-13.653333 34.133333-34.133333S532.48 136.533333 512 136.533333H477.866667V0h204.8l273.066666 273.066667v614.4c0 75.093333-61.44 136.533333-136.533333 136.533333H204.8c-75.093333 0-136.533333-61.44-136.533333-136.533333V136.533333C68.266667 61.44 129.706667 0 204.8 0h204.8z m0 682.666667h68.266667v68.266666H409.6v-68.266666z m-34.133333-68.266667c-20.48 0-34.133333 13.653333-34.133334 34.133333v136.533334c0 20.48 13.653333 34.133333 34.133334 34.133333h136.533333c20.48 0 34.133333-13.653333 34.133333-34.133333v-136.533334c0-20.48-13.653333-34.133333-34.133333-34.133333h-136.533333z" fill="#777777" p-id="1983"></path><path d="M682.666667 0l273.066666 273.066667h-204.8c-40.96 0-68.266667-27.306667-68.266666-68.266667V0z" fill="#E0E0E0" opacity=".597" p-id="1984"></path></svg>