<?xml version="1.0" standalone="no"?><!DOCTYPE svg PUBLIC "-//W3C//DTD SVG 1.1//EN" "http://www.w3.org/Graphics/SVG/1.1/DTD/svg11.dtd"><svg t="1714806867888" class="icon" viewBox="0 0 1092 1024" version="1.1" xmlns="http://www.w3.org/2000/svg" p-id="4043" xmlns:xlink="http://www.w3.org/1999/xlink" width="213.28125" height="200"><path d="M546.312746 1024L191.663601 816.862024V646.812089h33.639947v150.706965l321.009198 187.542707 321.093299-187.542707V646.812089h33.639947v170.049935l-354.733246 207.137976z" fill="#282D33" p-id="4044"></path><path d="M529.576873 655.978975h33.639947v320.3364h-33.639947z" fill="#282D33" p-id="4045"></path><path d="M704.840999 769.766097L513.009198 657.660972l387.784495-226.228646 191.9159 112.105125zM579.700394 657.745072l125.140605 73.082786L1026.018397 543.453351l-125.224704-73.082786z" fill="#282D33" p-id="4046"></path><path d="M387.868594 769.766097L0 543.537451 191.8318 431.432326l387.952694 226.228646zM66.775296 543.453351L387.868594 730.827858 513.009198 657.745072 191.8318 470.370565z" fill="#282D33" p-id="4047"></path><path d="M191.8318 469.950066L0 357.929041l379.374507-221.266755 16.988174 29.014455-329.671485 192.2523 125.224704 73.082786 224.462549-130.943496 16.904074 29.098555-241.450723 140.78318zM900.793693 469.950066L653.960578 325.971091l16.988174-29.098555 229.844941 134.139291L1026.018397 357.929041 696.346912 165.676741l16.988173-29.014455 379.374508 221.266755-191.9159 112.021025z" fill="#282D33" p-id="4048"></path><path d="M611.910644 545.051248h-33.639948v-324.625492h55.169514L546.396846 67.868594 459.269382 220.425756h55.169514v324.625492h-33.639947v-290.985545h-79.474376L546.396846 0l144.988174 254.065703h-79.474376v290.985545z" fill="#282D33" p-id="4049"></path></svg>
